HIERARCHY
ROOT Beta:Hips
{
	OFFSET 0.00 0.00 0.00
	CHANNELS 6 Xposition Yposition Zposition Yrotation Xrotation Zrotation
	JOINT Beta:Spine
	{
		OFFSET	0.0000	9.2263	1.5771
		CHANNELS 3 Xrotation Yrotation Zrotation
		JOINT Beta:Spine1
		{
			OFFSET	0.0000	16.2540	-0.1656
			CHANNELS 3 Xrotation Yrotation Zrotation
			JOINT Beta:Spine2
			{
				OFFSET	0.0000	13.6396	-1.2923
				CHANNELS 3 Xrotation Yrotation Zrotation
				JOINT Beta:Neck
				{
					OFFSET	0.0000	13.8774	-4.3542
					CHANNELS 3 Xrotation Yrotation Zrotation
					JOINT Beta:Neck1
					{
						OFFSET	0.0000	4.3400	0.9269
						CHANNELS 3 Xrotation Yrotation Zrotation
						JOINT Beta:Head
						{
							OFFSET	0.0000	4.0266	0.8585
							CHANNELS 3 Xrotation Yrotation Zrotation
							End Site
							{
								OFFSET 0.0000 23.0297 0.1231
							}
						}
					}
				}
				JOINT Beta:LeftShoulder
				{
					OFFSET	6.1442	10.1870	-3.7932
					CHANNELS 3 Zrotation Xrotation Yrotation
					JOINT Beta:LeftArm
					{
						OFFSET	12.3191	-1.1130	-1.7935
						CHANNELS 3 Zrotation Xrotation Yrotation
						JOINT Beta:LeftForeArm
						{
							OFFSET	27.6870	0.0000	0.0000
							CHANNELS 3 Xrotation Zrotation Yrotation
							JOINT Beta:LeftHand
							{
								OFFSET	27.8738	0.0000	0.0000
								CHANNELS 3 Zrotation Yrotation Xrotation
								JOINT Beta:LeftHandThumb1
								{
									OFFSET	2.3785	-1.0029	2.6209
									CHANNELS 3 Zrotation Xrotation Yrotation
									JOINT Beta:LeftHandThumb2
									{
										OFFSET	3.3624	-1.0029	2.8398
										CHANNELS 3 Zrotation Xrotation Yrotation
										JOINT Beta:LeftHandThumb3
										{
											OFFSET	4.5018	-1.3445	2.1783
											CHANNELS 3 Zrotation Xrotation Yrotation
											End Site
											{
												OFFSET 2.6000 -1.0000 1.0000
											}
										}
									}
								}
								JOINT Beta:LeftHandMiddle1
								{
									OFFSET	10.4639	0.6148	0.4298
									CHANNELS 3 Zrotation Xrotation Yrotation
									JOINT Beta:LeftHandMiddle2
									{
										OFFSET	5.7921	0.0000	0.0000
										CHANNELS 3 Zrotation Xrotation Yrotation
										JOINT Beta:LeftHandMiddle3
										{
											OFFSET	3.7132	0.0000	0.0000
											CHANNELS 3 Zrotation Xrotation Yrotation
											End Site
											{
												OFFSET 2.3000 0.0000 0.0000
											}
										}
									}
								}
								JOINT Beta:LeftHandIndex1
								{
									OFFSET	10.3945	0.6148	2.7055
									CHANNELS 3 Zrotation Xrotation Yrotation
									JOINT Beta:LeftHandIndex2
									{
										OFFSET	5.5493	0.0000	0.0000
										CHANNELS 3 Zrotation Xrotation Yrotation
										JOINT Beta:LeftHandIndex3
										{
											OFFSET	3.3911	0.0000	0.0000
											CHANNELS 3 Zrotation Xrotation Yrotation
											End Site
											{
												OFFSET 2.5000 0.0000 0.0000
											}
										}
									}
								}
								JOINT Beta:LeftHandRing1
								{
									OFFSET	10.3252	0.3211	-1.8755
									CHANNELS 3 Zrotation Xrotation Yrotation
									JOINT Beta:LeftHandRing2
									{
										OFFSET	5.4452	0.0000	0.0000
										CHANNELS 3 Zrotation Xrotation Yrotation
										JOINT Beta:LeftHandRing3
										{
											OFFSET	3.7132	0.0000	0.0000
											CHANNELS 3 Zrotation Xrotation Yrotation
											End Site
											{
												OFFSET 2.0000 0.0000 0.0000
											}
										}
									}
								}
								JOINT Beta:LeftHandPinky1
								{
									OFFSET	10.0130	-0.0783	-3.9671
									CHANNELS 3 Zrotation Xrotation Yrotation
									JOINT Beta:LeftHandPinky2
									{
										OFFSET	3.6763	0.0000	0.0000
										CHANNELS 3 Zrotation Xrotation Yrotation
										JOINT Beta:LeftHandPinky3
										{
											OFFSET	2.8113	0.0000	0.0000
											CHANNELS 3 Zrotation Xrotation Yrotation
											End Site
											{
												OFFSET 2.9000 0.0000 0.0000
											}
										}
									}
								}
							}
						}
					}
				}
				JOINT Beta:RightShoulder
				{
					OFFSET	-6.1402	10.1870	-3.7932
					CHANNELS 3 Zrotation Xrotation Yrotation
					JOINT Beta:RightArm
					{
						OFFSET	-12.3231	-1.1130	-1.7935
						CHANNELS 3 Zrotation Xrotation Yrotation
						JOINT Beta:RightForeArm
						{
							OFFSET	-27.6870	0.0000	0.0000
							CHANNELS 3 Xrotation Zrotation Yrotation
							JOINT Beta:RightHand
							{
								OFFSET	-27.8738	0.0000	0.0000
								CHANNELS 3 Zrotation Yrotation Xrotation
								JOINT Beta:RightHandThumb1
								{
									OFFSET	-2.5178	-0.9367	2.5137
									CHANNELS 3 Zrotation Xrotation Yrotation
									JOINT Beta:RightHandThumb2
									{
										OFFSET	-3.2638	-1.0870	2.9669
										CHANNELS 3 Zrotation Xrotation Yrotation
										JOINT Beta:RightHandThumb3
										{
											OFFSET	-4.4165	-1.3703	2.1350
											CHANNELS 3 Zrotation Xrotation Yrotation
											End Site
											{
												OFFSET -2.6000 -1.0000 1.0000
											}
										}
									}
								}
								JOINT Beta:RightHandIndex1
								{
									OFFSET	-10.4665	0.4896	2.7120
									CHANNELS 3 Zrotation Xrotation Yrotation
									JOINT Beta:RightHandIndex2
									{
										OFFSET	-5.3768	0.0000	0.0000
										CHANNELS 3 Zrotation Xrotation Yrotation
										JOINT Beta:RightHandIndex3
										{
											OFFSET	-3.3855	0.0000	0.0000
											CHANNELS 3 Zrotation Xrotation Yrotation
											End Site
											{
												OFFSET -2.6000 0.0000 0.0000
											}
										}
									}
								}
								JOINT Beta:RightHandMiddle1
								{
									OFFSET	-10.7596	0.4896	0.4278
									CHANNELS 3 Zrotation Xrotation Yrotation
									JOINT Beta:RightHandMiddle2
									{
										OFFSET	-5.6168	0.0000	0.0000
										CHANNELS 3 Zrotation Xrotation Yrotation
										JOINT Beta:RightHandMiddle3
										{
											OFFSET	-3.7364	0.0000	0.0000
											CHANNELS 3 Zrotation Xrotation Yrotation
											End Site
											{
												OFFSET -2.3000 0.0000 0.0000
											}
										}
									}
								}
								JOINT Beta:RightHandRing1
								{
									OFFSET	-10.4702	0.3879	-1.9363
									CHANNELS 3 Zrotation Xrotation Yrotation
									JOINT Beta:RightHandRing2
									{
										OFFSET	-5.4013	0.0000	0.0000
										CHANNELS 3 Zrotation Xrotation Yrotation
										JOINT Beta:RightHandRing3
										{
											OFFSET	-3.3916	0.0000	0.0000
											CHANNELS 3 Zrotation Xrotation Yrotation
											End Site
											{
												OFFSET -2.2000 0.0000 0.0000
											}
										}
									}
								}
								JOINT Beta:RightHandPinky1
								{
									OFFSET	-9.9715	-0.1191	-3.9540
									CHANNELS 3 Zrotation Xrotation Yrotation
									JOINT Beta:RightHandPinky2
									{
										OFFSET	-3.6528	0.0000	0.0000
										CHANNELS 3 Zrotation Xrotation Yrotation
										JOINT Beta:RightHandPinky3
										{
											OFFSET	-2.7820	0.0000	0.0000
											CHANNELS 3 Zrotation Xrotation Yrotation
											End Site
											{
												OFFSET -2.9000 0.0000 0.0000
											}
										}
									}
								}
							}
						}
					}
				}
			}
		}
	}
	JOINT Beta:LeftUpLeg
	{
		OFFSET	9.6338	-3.2733	0.0000
		CHANNELS 3 Xrotation Yrotation Zrotation
		JOINT Beta:LeftLeg
		{
			OFFSET	0.0000	-41.7300	-1.7300
			CHANNELS 3 Xrotation Yrotation Zrotation
			JOINT Beta:LeftFoot
			{
				OFFSET	0.0126	-39.1900	-0.8477
				CHANNELS 3 Xrotation Yrotation Zrotation
				JOINT Beta:LeftToeBase
				{
					OFFSET	-0.1833	-12.1931	8.2823
					CHANNELS 3 Xrotation Yrotation Zrotation
					End Site
					{
						OFFSET 0.0000 0.0000 10.1681
					}
				}
			}
		}
	}
	JOINT Beta:RightUpLeg
	{
		OFFSET	-9.6338	-3.2733	0.0000
		CHANNELS 3 Xrotation Yrotation Zrotation
		JOINT Beta:RightLeg
		{
			OFFSET	0.0000	-41.7300	-1.7300
			CHANNELS 3 Xrotation Yrotation Zrotation
			JOINT Beta:RightFoot
			{
				OFFSET	0.0126	-39.1900	-0.8477
				CHANNELS 3 Xrotation Yrotation Zrotation
				JOINT Beta:RightToeBase
				{
					OFFSET	-0.1833	-12.1931	8.2823
					CHANNELS 3 Xrotation Yrotation Zrotation
					End Site
					{
						OFFSET 0.0032 0.0000 10.1681
					}
				}
			}
		}
	}
}
MOTION
Frames: 4
Frame Time: 0.0333333
0.0271 97.2252 0.0028 25.3232 0.6749 7.2808 2.0730 4.2711 -0.3703 0.3270 1.2510 0.4152 0.3268 1.2517 0.4050 4.5373 -2.8280 -0.9099 -0.0000 0.0000 -0.0000 18.0260 -32.3858 1.6363 -19.0782 0.8587 0.1523 -39.4982 -0.7263 -1.1965 0.0000 0.0000 -6.2372 -12.0217 4.4502 30.1497 -1.5160 8.0310 4.5616 7.9165 9.7921 -0.6267 20.7004 -11.8539 8.9219 -21.6330 0.0014 -1.5886 -43.5662 0.0041 -0.0104 -27.1422 0.0016 -0.0069 -19.2968 2.1626 -5.3578 -33.5961 0.0025 -0.0083 7.9659 0.0001 0.0021 -23.5929 0.0016 1.2451 -64.1281 0.0085 -0.0135 -23.7117 0.0013 -0.0060 -35.5334 -0.5841 -2.3061 -48.7621 0.0051 -0.0113 -30.7739 0.0021 -0.0077 17.7853 1.8572 4.0920 50.2595 -4.0898 11.5853 0.0000 0.0000 21.0958 -1.6009 22.0034 -9.8599 -3.1216 6.4674 -12.8359 -4.0628 9.7256 -8.7816 -15.7238 -21.3374 14.5854 11.4673 0.7158 4.3162 48.3555 0.0026 0.0059 5.4629 0.0000 0.0008 26.7416 0.0010 2.9695 56.5457 0.0036 0.0066 17.9311 0.0004 0.0024 40.6004 0.0021 3.8328 52.9163 0.0032 0.0063 39.1202 0.0018 0.0050 34.5503 -0.3320 3.9714 67.8818 0.0049 0.0073 29.7027 0.0010 0.0039 -15.2874 4.7182 1.6717 16.4502 9.6377 -0.2876 -7.4327 1.1438 -8.7887 -5.8987 0.0000 -0.0000 -15.4549 -7.2126 -5.1963 22.2408 -9.9314 0.2915 -2.4271 -24.2508 2.5088 -7.2866 0.0000 -0.0000 
-0.0734 97.0960 1.9990 25.8922 0.5529 7.1793 1.8038 6.2458 -0.9450 0.5032 1.8374 0.5321 0.5000 1.8356 0.5284 4.5211 -3.0561 -0.8680 -0.0000 0.0000 -0.0000 18.8460 -34.5796 3.5986 -19.2697 0.5489 1.1875 -37.5606 -0.5857 -0.0614 0.0000 0.0000 -7.8550 -8.9472 2.4751 26.0585 -1.4107 7.9950 4.4976 7.8373 9.8045 -0.7223 20.3207 -11.9869 8.3931 -21.6868 0.0014 -1.5817 -43.0238 0.0040 -0.0103 -26.9672 0.0016 -0.0068 -19.1915 2.1341 -5.4159 -33.2486 0.0025 -0.0082 7.8079 0.0001 0.0020 -23.6167 0.0016 1.2535 -63.1953 0.0083 -0.0134 -23.5410 0.0012 -0.0060 -35.3675 -0.5873 -2.3177 -47.9460 0.0050 -0.0112 -30.5027 0.0021 -0.0076 17.6452 1.8668 4.5703 48.5094 -5.6277 12.2069 0.0000 -0.0000 22.0027 -1.5997 22.5849 -9.6396 -3.0952 6.4093 -12.7694 -3.9771 9.7509 -8.8903 -15.7820 -21.2328 14.5115 11.6850 0.7297 4.3216 48.5602 0.0027 0.0059 5.5572 0.0000 0.0008 27.0807 0.0010 2.9850 56.6968 0.0036 0.0066 18.0608 0.0004 0.0025 40.9149 0.0021 3.8304 53.0622 0.0032 0.0063 39.2040 0.0018 0.0050 34.9077 -0.3289 3.9690 67.9617 0.0049 0.0073 29.7025 0.0010 0.0039 -18.4764 4.0047 0.3076 15.2231 9.5105 -0.2835 -7.9978 1.0132 -9.4905 -4.9120 0.0000 -0.0000 -14.2895 -7.2080 -4.4782 23.0368 -9.8341 0.2868 -4.2986 -25.1650 2.7952 -7.5853 0.0000 -0.0000 
-0.1227 96.9453 3.9896 26.1733 0.5395 6.9042 1.1172 7.9783 -1.4389 0.8997 2.3634 0.7749 0.8923 2.3607 0.7844 4.4833 -3.2676 -0.6925 -0.0000 0.0000 -0.0000 19.2393 -36.0760 5.0046 -19.4415 0.2403 2.2562 -36.2572 -1.6960 0.7738 -0.0000 0.0000 -9.0184 -6.1186 0.9054 22.5689 -1.1180 7.8914 4.3170 7.6129 9.8392 -0.9825 19.2521 -12.3285 6.8986 -21.8417 0.0014 -1.5622 -41.5193 0.0038 -0.0100 -26.4869 0.0016 -0.0067 -18.8991 2.0540 -5.5785 -32.2868 0.0023 -0.0080 7.3521 0.0001 0.0019 -23.6933 0.0016 1.2764 -60.6097 0.0077 -0.0131 -23.0731 0.0012 -0.0059 -34.9261 -0.5964 -2.3493 -45.7012 0.0045 -0.0108 -29.7543 0.0020 -0.0075 17.7270 1.9107 4.9473 46.5034 -6.6716 12.9028 0.0000 -0.0000 22.6752 -1.5651 22.9432 -9.0489 -3.0194 6.2427 -12.5775 -3.7297 9.8221 -9.2037 -15.9480 -20.9311 14.2996 12.3079 0.7693 4.3373 49.1456 0.0027 0.0060 5.8268 0.0000 0.0008 28.0482 0.0011 3.0294 57.1293 0.0036 0.0067 18.4327 0.0004 0.0025 41.8098 0.0023 3.8237 53.4787 0.0032 0.0064 39.4436 0.0018 0.0050 35.9217 -0.3199 3.9619 68.1889 0.0050 0.0074 29.7010 0.0010 0.0039 -21.9053 3.2862 -0.8668 14.9570 9.3794 -0.2791 -8.5439 1.1557 -10.2934 -3.8813 -0.0000 -0.0000 -12.9948 -7.4424 -3.6002 23.3839 -9.7384 0.2830 -6.1266 -25.6036 2.9935 -7.9188 0.0000 -0.0000 
-0.1113 96.7631 6.0081 26.3443 0.6029 6.4922 0.3478 9.4901 -1.7350 1.3066 2.8287 1.0172 1.2943 2.8251 1.0432 4.4277 -3.4580 -0.4590 -0.0000 0.0000 -0.0000 19.3953 -37.1401 6.1270 -19.6121 -0.0598 3.3291 -35.4900 -3.2740 1.3770 0.0000 -0.0000 -9.7590 -5.1931 0.3016 21.3458 -0.6723 7.7258 4.0374 7.2630 9.8939 -1.3685 17.5951 -12.7647 4.5622 -22.0888 0.0014 -1.5316 -39.2319 0.0034 -0.0095 -25.7664 0.0015 -0.0065 -18.4543 1.9306 -5.8284 -30.8289 0.0021 -0.0077 6.6237 0.0001 0.0017 -23.8311 0.0016 1.3104 -56.6817 0.0068 -0.0126 -22.3726 0.0011 -0.0057 -34.2925 -0.6103 -2.3957 -42.3259 0.0039 -0.0101 -28.6237 0.0018 -0.0072 18.0961 1.9811 4.9764 44.3470 -6.8716 13.5035 -0.0000 -0.0000 23.1709 -1.4514 23.2081 -8.1909 -2.8985 5.9791 -12.2712 -3.3347 9.9311 -9.7033 -16.2067 -20.4494 13.9648 13.2923 0.8320 4.3620 50.0710 0.0028 0.0061 6.2529 0.0001 0.0009 29.5729 0.0012 3.0996 57.8128 0.0037 0.0067 19.0220 0.0004 0.0026 43.2152 0.0024 3.8129 54.1349 0.0033 0.0064 39.8222 0.0018 0.0051 37.5081 -0.3060 3.9509 68.5458 0.0050 0.0074 29.6968 0.0010 0.0039 -25.6089 2.6080 -1.9492 15.7344 9.5598 -0.2840 -9.6491 2.2100 -11.0012 -3.3883 -0.0000 -0.0000 -11.5900 -7.4417 -2.5266 23.4499 -9.6727 0.2811 -7.7490 -26.0847 3.1918 -8.2023 -0.0000 -0.0000 
